# xmcd CD database file
#
# Track frame offsets:
#	180
#	18260
#	30390
#	46304
#	54915
#	69152
#	76367
#	85591
#	97740
#	108086
#	119025
#	131422
#
# Disc length: 1971 seconds
#
# Revision: 1
# Processed by: cddbd v1.4PL0 Copyright (c) Steve Scherf et al.
# Submitted via: CDex 1.40Beta9
#
DISCID=8107b10c
DTITLE=Snoopy's Classiks On Toys - Country
DYEAR=1996
DGENRE=Country
TTITLE0=Any Man of Mine
TTITLE1=Achy Breaky Heart
TTITLE2=Friends In Low Places
TTITLE3=Hey Good Lookin'
TTITLE4=Peanuts Go West
TTITLE5=Thank God I'm A Country Girl
TTITLE6=King Of The Road
TTITLE7=Crazy
TTITLE8=Grundy County Auction
TTITLE9=Orange Blossom Special
TTITLE10=Boot Scootin' Boogie
TTITLE11=Mamas, Don't Let Your Babies Grow Up To Be Cowboys
EXTD=YEAR: 1996 ID3G: 2
EXTT0=
EXTT1=
EXTT2=
EXTT3=
EXTT4=
EXTT5=
EXTT6=
EXTT7=
EXTT8=
EXTT9=
EXTT10=
EXTT11=
PLAYORDER=
